Coordinates
version=1
nRows=12
nColumns=24
inDegrees=yes

Units are S.I. units (second, meters, Newtons, ...)
Angles are in degrees.

endheader
time	pelvis_tilt	pelvis_list	pelvis_rotation	pelvis_tx	pelvis_ty	pelvis_tz	hip_flexion_r	hip_adduction_r	hip_rotation_r	knee_angle_r	ankle_angle_r	subtalar_angle_r	mtp_angle_r	hip_flexion_l	hip_adduction_l	hip_rotation_l	knee_angle_l	ankle_angle_l	subtalar_angle_l	mtp_angle_l	lumbar_extension	lumbar_bending	lumbar_rotation
      1.11733333	      4.05595860	     -5.71343658	      8.04964344	      0.51383941	      1.03007025	      0.29446970	      7.26762664	     11.64749504	     -3.23880328	    -17.12303685	      5.25327986	    -14.59922295	      5.36335147	     12.97852448	     -8.29170711	      4.00780569	    -59.30715849	     13.29023475	      5.76752556	      3.22722494	     -4.28560993	      3.50460388	     -3.46079410
      1.12150000	      4.07004119	     -5.62099710	      7.83480333	      0.51826158	      1.03096004	      0.29510168	      6.72477929	     11.63240375	     -3.02976252	    -16.67695137	      5.25702551	    -14.48368901	      5.34804535	     13.41139158	     -8.14634463	      3.75912043	    -58.65365639	     13.44189264	      5.08740286	      3.15816301	     -4.38439655	      3.39027642	     -3.19226402
      1.12566667	      4.07416557	     -5.51528500	      7.61588479	      0.52267608	      1.03181969	      0.29572480	      6.19473051	     11.59679009	     -2.82082809	    -16.23806795	      5.26750321	    -14.36694270	      5.33536483	     13.83580571	     -7.98797365	      3.49802262	    -57.94858687	     13.54717491	      4.38320894	      3.07768823	     -4.46961599	      3.25317856	     -2.92609504
      1.12983333	      4.07338348	     -5.40082498	      7.39498331	      0.52708642	      1.03263847	      0.29634914	      5.67493347	     11.54724278	     -2.60905482	    -15.81223379	      5.29017083	    -14.24507235	      5.32683913	     14.25004074	     -7.82567134	      3.22178163	    -57.20344268	     13.61689062	      3.66255276	      2.99128795	     -4.55907648	      3.09985521	     -2.67680514
      1.13400000	      4.07530508	     -5.28908804	      7.17260323	      0.53149497	      1.03342144	      0.29696964	      5.15728413	     11.49665379	     -2.40195311	    -15.39432951	      5.31636050	    -14.12445639	      5.32125359	     14.64754358	     -7.67451807	      2.92986440	    -56.41754737	     13.65743635	      2.94602610	      2.89790916	     -4.64088851	      2.95792009	     -2.43050780
      1.13816667	      4.05947929	     -5.16566626	      6.94530059	      0.53590161	      1.03415847	      0.29758349	      4.66425668	     11.42628063	     -2.19206469	    -14.98944781	      5.34482406	    -13.99900775	      5.31798520	     15.04300372	     -7.50851937	      2.63278464	    -55.58131831	     13.65788527	      2.22577170	      2.78958678	     -4.70428857	      2.79893776	     -2.17804958
      1.14233333	      4.05663159	     -5.05272763	      6.72354487	      0.54029920	      1.03485930	      0.29817704	      4.16518189	     11.36224325	     -2.00847416	    -14.59144911	      5.34662819	    -13.85374399	      5.31537809	     15.41712786	     -7.36177855	      2.32665421	    -54.71811106	     13.65322282	      1.52273967	      2.58091942	     -4.78453554	      2.64832685	     -1.85121045
      1.14650000	      4.00448655	     -4.94101218	      6.47158163	      0.54468619	      1.03544132	      0.29883314	      3.72933472	     11.29925014	     -1.73887011	    -14.22305851	      5.40859878	    -13.73447712	      5.31835309	     15.83034293	     -7.22865669	      1.97480333	    -53.82583832	     13.64241085	      0.89286434	      2.49727427	     -4.83798660	      2.48299373	     -1.74502788
      1.15066667	      3.99222354	     -4.81044648	      6.26123704	      0.54909399	      1.03606139	      0.29937905	      3.24720066	     11.20764310	     -1.55898906	    -13.84182784	      5.46266958	    -13.64379543	      5.32218900	     16.17660083	     -7.05731129	      1.67831887	    -52.86307167	     13.49523954	      0.17327870	      2.36736138	     -4.87446875	      2.33412863	     -1.49698301
      1.15483333	      3.96275172	     -4.70261114	      6.03149128	      0.55350555	      1.03659871	      0.29996770	      2.79199138	     11.13722694	     -1.35592987	    -13.47274604	      5.52085048	    -13.49272442	      5.34899405	     16.53603652	     -6.92896165	      1.34054033	    -51.89092281	     13.40960211	     -0.43620549	      1.80197829	     -4.90103454	      2.16782184	     -1.05314175
      1.15900000	      3.93345717	     -4.58838784	      5.82556294	      0.55789815	      1.03709619	      0.30049084	      2.33609915	     11.05803848	     -1.13716893	    -13.09764779	      5.56332510	    -13.41095966	      5.35705806	     16.88208872	     -6.77558993	      1.04890075	    -50.87229040	     13.24807231	     -1.06529143	      1.65446891	     -4.95989302	      2.02192546	     -0.99709382
      1.16316667	      3.89253952	     -4.47876905	      5.59830477	      0.56229310	      1.03753511	      0.30102720	      1.90660033	     10.97677721	     -0.91889840	    -12.75108041	      5.59192537	    -13.30486264	      5.37092464	     17.22160501	     -6.63588685	      0.72850386	    -49.81989829	     13.08585868	     -1.65305851	      1.44573892	     -4.99743197	      1.88737147	     -0.78192985
